<svg width="24" height="20" viewBox="0 0 24 20" fill="none" xmlns="http://www.w3.org/2000/svg">
<path d="M7.54753 19.7505C16.6042 19.7505 21.5578 12.2472 21.5578 5.74025C21.5578 5.52716 21.5578 5.315 21.5434 5.10378C22.507 4.4067 23.3389 3.54369 24 2.555C23.1014 2.95321 22.148 3.2143 21.1718 3.3297C22.1995 2.71452 22.9692 1.74617 23.3366 0.606174C22.3701 1.17969 21.3126 1.58394 20.2099 1.80139C19.2789 0.811346 17.9786 0.249268 16.6196 0.249268C13.9158 0.249268 11.691 2.47414 11.691 5.17789C11.691 5.55299 11.7338 5.92691 11.8185 6.29225C7.86145 6.09392 4.16948 4.2222 1.67039 1.14763C0.370828 3.38478 1.04325 6.284 3.19486 7.72072C2.41134 7.69752 1.64466 7.48611 0.96 7.10441V7.1668C0.960656 9.50183 2.62158 11.5314 4.91039 11.9937C4.18552 12.1914 3.42478 12.2203 2.68706 12.0782C3.33052 14.079 5.18602 15.4582 7.28738 15.4977C5.54409 16.8677 3.38939 17.6119 1.17216 17.6097C0.780375 17.609 0.388969 17.5852 0 17.5386C2.25159 18.9836 4.87219 19.7502 7.54753 19.7466" fill="#050606"/>
</svg>
