<svg width="24" height="24" viewBox="0 0 24 24" fill="none" xmlns="http://www.w3.org/2000/svg">
<path d="M7.05358 20.6666H3.33929V8.28564H7.05358V20.6666ZM20.6726 20.6666H16.9583V14.0527C16.9583 12.3293 16.3442 11.4713 15.1272 11.4713C14.1627 11.4713 13.5511 11.9516 13.2441 12.9136C13.2441 14.4761 13.2441 20.6666 13.2441 20.6666H9.52977C9.52977 20.6666 9.57929 9.52374 9.52977 8.28564H12.4616L12.6882 10.7618H12.7649C13.5263 9.52374 14.7434 8.68431 16.4123 8.68431C17.6814 8.68431 18.7078 9.03717 19.4915 9.92364C20.2802 10.8114 20.6726 12.0024 20.6726 13.6751V20.6666Z" fill="#050606"/>
<path d="M5.19641 7.04754C6.25628 7.04754 7.11546 6.21607 7.11546 5.19039C7.11546 4.16472 6.25628 3.33325 5.19641 3.33325C4.13655 3.33325 3.27737 4.16472 3.27737 5.19039C3.27737 6.21607 4.13655 7.04754 5.19641 7.04754Z" fill="#050606"/>
</svg>
